<svg xmlns="http://www.w3.org/2000/svg" viewBox="0 0 32 32">
  <rect width="32" height="32" fill="#F7F3EC"/>
  <rect x="0.5" y="0.5" width="31" height="31" fill="none" stroke="#1F1B17" stroke-width="1"/>
  <!-- Simplified AS as bold geometric shapes for zero font dependency -->
  <!-- A -->
  <path fill="#1F1B17" d="M7 24 L10.2 14 L13.4 24 H11.8 L11.3 22.2 H9.1 L8.6 24 Z M9.5 20.8 H10.9 L10.2 18.4 Z"/>
  <!-- S -->
  <path fill="#1F1B17" d="M16.2 16.2 C16.2 14.2 17.6 13.2 19.6 13.2 C21.2 13.2 22.4 13.9 23 15 L21.8 15.9 C21.4 15.1 20.6 14.5 19.6 14.5 C18.5 14.5 17.8 15 17.8 15.9 C17.8 16.7 18.4 17.1 20.2 17.6 L20.8 17.8 C23 18.4 24 19.5 24 21.2 C24 23.4 22.3 24.8 19.7 24.8 C17.8 24.8 16.3 24 15.5 22.6 L16.8 21.6 C17.4 22.7 18.4 23.3 19.7 23.3 C21.1 23.3 22 22.6 22 21.4 C22 20.4 21.3 19.8 19.4 19.3 L18.8 19.1 C16.9 18.6 16.2 17.5 16.2 16.2 Z"/>
  <!-- bar -->
  <rect x="9" y="26" width="14" height="1.6" rx="0.8" fill="#B24A2E"/>
</svg>
